PathFileType	4	(X/Y/Z)	/Users/itak/Documents/Research/Walk-IL/dataset/trc/00552_00009.trc
DataRate	CameraRate	NumFrames	NumMarkers	Units	OrigDataRate	OrigDataStartFrame	OrigNumFrames
100.000000	100.000000	4	53	mm	100.000000	0	554
Frame#	Time	RPSI			LPSI			L3			STRN			T10			C7			CLAV			RBAK			LBAK			LSHO			LUPA			LAEL			LAOL			LWTS			LWPS			LFRA			LIFD			LHPS			LHTS			RSHO			RUPA			RAEL			RAOL			RWTS			RWPS			RFRA			RIFD			RHTS			RHPS			RBHD			LFHD			RFHD			LBHD			LHIP			RHIP			RASI			LASI			LKNE			LTHI			LANK			LTIP			LTOE			LMT1			LMT5			LHEE			RKNE			RTHI			RANK			RTIP			RTOE			RMT1			RMT5			RHEE			
		X1	Y1	Z1	X2	Y2	Z2	X3	Y3	Z3	X4	Y4	Z4	X5	Y5	Z5	X6	Y6	Z6	X7	Y7	Z7	X8	Y8	Z8	X9	Y9	Z9	X10	Y10	Z10	X11	Y11	Z11	X12	Y12	Z12	X13	Y13	Z13	X14	Y14	Z14	X15	Y15	Z15	X16	Y16	Z16	X17	Y17	Z17	X18	Y18	Z18	X19	Y19	Z19	X20	Y20	Z20	X21	Y21	Z21	X22	Y22	Z22	X23	Y23	Z23	X24	Y24	Z24	X25	Y25	Z25	X26	Y26	Z26	X27	Y27	Z27	X28	Y28	Z28	X29	Y29	Z29	X30	Y30	Z30	X31	Y31	Z31	X32	Y32	Z32	X33	Y33	Z33	X34	Y34	Z34	X35	Y35	Z35	X36	Y36	Z36	X37	Y37	Z37	X38	Y38	Z38	X39	Y39	Z39	X40	Y40	Z40	X41	Y41	Z41	X42	Y42	Z42	X43	Y43	Z43	X44	Y44	Z44	X45	Y45	Z45	X46	Y46	Z46	X47	Y47	Z47	X48	Y48	Z48	X49	Y49	Z49	X50	Y50	Z50	X51	Y51	Z51	X52	Y52	Z52	X53	Y53	Z53	

1	0	-999.1395874023438	1016.153930664062	242.2185363769531	-995.1190185546875	1019.325134277344	108.4077529907227	-995.509521484375	1102.274169921875	171.5436248779297	-775.6814575195312	1299.240844726562	167.1902008056641	-1014.113708496094	1227.189819335938	171.3243103027344	-979.9486694335938	1501.924194335938	185.7241058349609	-799.8756103515625	1410.197875976562	169.5544891357422	-1042.445434570312	1373.284912109375	270.71826171875	-1012.955200195312	1449.01123046875	94.11947631835938	-918.541015625	1481.008544921875	11.86823463439941	-920.6881103515625	1356.806518554688	-70.49982452392578	-874.6901245117188	1137.880859375	-95.02462768554688	-964.4282836914062	1119.1728515625	-51.84671020507812	-744.60009765625	916.4119262695312	-42.51443481445312	-786.5518188476562	881.1784057617188	-111.3939895629883	-839.6339721679688	1055.536376953125	-99.48725891113281	-727.2487182617188	742.9805908203125	-40.14131164550781	-769.4544067382812	823.4527587890625	-101.3337631225586	-723.9281616210938	836.9789428710938	-53.6791877746582	-915.1668090820312	1464.466186523438	338.3511352539062	-929.7279052734375	1397.609741210938	405.4509582519531	-913.6012573242188	1107.083251953125	446.3630676269531	-967.8504028320312	1087.659912109375	420.5941772460938	-771.0442504882812	893.9995727539062	389.3507080078125	-809.9780883789062	869.8639526367188	459.0091857910156	-898.3719482421875	1052.03076171875	450.3763122558594	-750.653564453125	720.2335205078125	391.0750427246094	-738.78515625	803.4600830078125	399.3563537597656	-789.5468139648438	796.1449584960938	452.6065673828125	-929.0180053710938	1680.676391601562	240.6891021728516	-768.430419921875	1724.910034179688	115.3149948120117	-795.902099609375	1723.062866210938	257.0382995605469	-890.0911254882812	1681.650268554688	79.38564300537109	-856.0591430664062	931.0007934570312	-15.83792018890381	-878.0723266601562	941.322509765625	364.6554870605469	-788.97119140625	970.2564086914062	307.6300354003906	-790.0147094726562	963.4732666015625	31.3775634765625	-869.189453125	494.3074340820312	45.72546005249023	-856.279541015625	658.3909301757812	5.707952976226807	-950.6588134765625	33.36236572265625	63.6218376159668	-935.1551513671875	250.4894866943359	44.86258697509766	-741.2444458007812	38.91748809814453	120.9498748779297	-812.3074951171875	40.8423957824707	156.5152740478516	-827.7252807617188	34.92338943481445	49.9857292175293	-1020.251647949219	36.58779525756836	118.7952346801758	-876.3519897460938	496.8392639160156	321	-846.2411499023438	785.9124145507812	363.0827026367188	-977.2821655273438	36.92974090576172	309.7251892089844	-885.1022338867188	354.9325561523438	309.6378784179688	-755.4906616210938	39.4152946472168	270.8987731933594	-820.0225830078125	40.63964462280273	228.92626953125	-843.0914916992188	36.31569290161133	331.3141174316406	-1031.753784179688	33.04935073852539	252.8225402832031	
2	0.01	-999.1756591796875	1016.1396484375	242.2214202880859	-995.102783203125	1019.291076660156	108.3985137939453	-995.5223388671875	1102.265625	171.5353088378906	-775.7099609375	1299.2587890625	167.2072906494141	-1014.140991210938	1227.1708984375	171.3105621337891	-980.0130615234375	1501.919311523438	185.6789398193359	-799.9033813476562	1410.218505859375	169.5407409667969	-1042.504638671875	1373.270385742188	270.66943359375	-1012.992248535156	1448.983642578125	94.07297515869141	-918.5811767578125	1480.972900390625	11.83267116546631	-920.7290649414062	1356.768432617188	-70.50743103027344	-874.7677001953125	1137.821411132812	-95.04899597167969	-964.4913330078125	1119.156372070312	-51.81072998046875	-747.4306640625	914.6249389648438	-41.24961853027344	-787.0203247070312	881.0916137695312	-111.7028350830078	-839.7791748046875	1055.441040039062	-99.58699035644531	-727.7216796875	742.6901245117188	-40.53349685668945	-770.0533447265625	823.330810546875	-101.6794281005859	-724.41943359375	836.5936279296875	-54.05692672729492	-915.2334594726562	1464.483520507812	338.3167724609375	-929.79345703125	1397.6123046875	405.4047546386719	-913.6220703125	1107.141357421875	446.3638000488281	-967.8840942382812	1087.668212890625	420.6669921875	-770.994873046875	894.13037109375	389.1239318847656	-809.7960815429688	869.9132080078125	458.7760620117188	-898.32080078125	1052.029174804688	450.3453674316406	-750.510986328125	720.3274536132812	390.7565307617188	-738.7904052734375	803.5401611328125	398.9905700683594	-789.3414306640625	796.1979370117188	452.30859375	-929.062744140625	1680.688598632812	240.6491241455078	-768.459716796875	1724.888427734375	115.2980728149414	-795.9384765625	1723.049926757812	257.0188598632812	-890.1152954101562	1681.655395507812	79.36498260498047	-856.0115356445312	930.9744262695312	-15.8017463684082	-878.1288452148438	941.33251953125	364.6872253417969	-789.0214233398438	970.3447265625	307.6458435058594	-789.9553833007812	963.4759521484375	31.43509864807129	-869.1271362304688	494.3343200683594	45.73368072509766	-856.2644653320312	658.3751220703125	5.702469825744629	-950.6635131835938	33.3713493347168	63.62127304077148	-935.1245727539062	250.4838714599609	44.86636734008789	-741.2525634765625	38.91700744628906	120.9557952880859	-812.3087158203125	40.8433723449707	156.5237274169922	-827.7310791015625	34.92341232299805	50.00177383422852	-1020.255493164062	36.58671569824219	118.7871704101562	-876.3505859375	496.8425903320312	321.0328063964844	-846.2373046875	785.9147338867188	363.0939025878906	-977.2755737304688	36.92918014526367	309.7158203125	-885.0892333984375	354.92236328125	309.6439514160156	-755.4642333984375	39.40996170043945	270.8569946289062	-820.0203247070312	40.63882827758789	228.9284057617188	-843.0907592773438	36.31509780883789	331.3182373046875	-1031.748657226562	33.04914093017578	252.8193054199219	
3	0.02	-999.2220458984375	1016.119873046875	242.228271484375	-995.0821533203125	1019.248107910156	108.384391784668	-995.5393676757812	1102.256469726562	171.5256958007812	-775.7462768554688	1299.279418945312	167.2291412353516	-1014.174438476562	1227.147827148438	171.2958374023438	-980.0894165039062	1501.913818359375	185.6250915527344	-799.9412231445312	1410.242553710938	169.5256042480469	-1042.5830078125	1373.25439453125	270.6142272949219	-1013.03857421875	1448.9501953125	94.01993560791016	-918.6275024414062	1480.930297851562	11.79065418243408	-920.7804565429688	1356.721923828125	-70.51486206054688	-874.884033203125	1137.743408203125	-95.07758331298828	-964.5869750976562	1119.142578125	-51.75388336181641	-750.2559204101562	912.8226928710938	-40.14919662475586	-787.68603515625	880.9625244140625	-112.111213684082	-839.9973754882812	1055.306274414062	-99.70955657958984	-728.3465576171875	742.3281860351562	-41.03273773193359	-770.8663940429688	823.1456298828125	-102.1229476928711	-725.0411376953125	836.1363525390625	-54.54271697998047	-915.3162841796875	1464.498901367188	338.2772521972656	-929.8794555664062	1397.613159179688	405.348388671875	-913.64697265625	1107.2021484375	446.364501953125	-967.9303588867188	1087.678344726562	420.7513427734375	-770.9430541992188	894.2718505859375	388.8693237304688	-809.5911865234375	869.9690551757812	458.5107727050781	-898.2693481445312	1052.025268554688	450.31298828125	-750.3631591796875	720.4503173828125	390.409423828125	-738.7932739257812	803.624755859375	398.5938110351562	-789.1243896484375	796.2559814453125	451.9695739746094	-929.1158447265625	1680.704711914062	240.600830078125	-768.5006713867188	1724.859497070312	115.2798080444336	-795.9805297851562	1723.030639648438	256.9920654296875	-890.1441040039062	1681.659790039062	79.33717346191406	-855.949951171875	930.9472045898438	-15.75659942626953	-878.19873046875	941.3443603515625	364.73095703125	-789.1024780273438	970.4427490234375	307.6953430175781	-789.8839721679688	963.4835205078125	31.50581169128418	-869.0496826171875	494.364013671875	45.74480819702148	-856.2433471679688	658.3533325195312	5.688674926757812	-950.6679077148438	33.36478805541992	63.63053894042969	-935.0841064453125	250.472900390625	44.87335586547852	-741.2614135742188	38.91659545898438	120.9621429443359	-812.3099975585938	40.84350967407227	156.5328369140625	-827.7371215820312	34.92212295532227	50.01972198486328	-1020.258422851562	36.58390045166016	118.777473449707	-876.3463745117188	496.8466491699219	321.0764465332031	-846.238037109375	785.9193725585938	363.1137084960938	-977.268798828125	36.92818832397461	309.7060241699219	-885.07421875	354.9127502441406	309.6571960449219	-755.4405517578125	39.40358352661133	270.8138732910156	-820.0087280273438	40.63354110717773	228.9411926269531	-843.0936279296875	36.31328964233398	331.3243408203125	-1031.742553710938	33.04939270019531	252.8161773681641	
4	0.03	-999.2756958007812	1016.095092773438	242.2393493652344	-995.0577392578125	1019.198364257812	108.3660888671875	-995.5601196289062	1102.24755859375	171.515625	-775.7872314453125	1299.303466796875	167.2537384033203	-1014.213623046875	1227.121826171875	171.2823944091797	-980.1722412109375	1501.908569335938	185.5663299560547	-799.98876953125	1410.2685546875	169.5110321044922	-1042.67919921875	1373.23876953125	270.5577697753906	-1013.092224121094	1448.9130859375	93.96544647216797	-918.6764526367188	1480.883422851562	11.74534511566162	-920.8405151367188	1356.669555664062	-70.52068328857422	-875.0437622070312	1137.6484375	-95.10845947265625	-964.7189331054688	1119.135375976562	-51.67382049560547	-752.7786865234375	911.1901245117188	-39.38695907592773	-788.5560302734375	880.7880859375	-112.6078720092773	-840.2998657226562	1055.130737304688	-99.84738922119141	-729.1190795898438	741.9092407226562	-41.62216567993164	-771.890869140625	822.889404296875	-102.6505126953125	-725.7805786132812	835.6334228515625	-55.12062835693359	-915.41162109375	1464.508544921875	338.2365417480469	-929.9839477539062	1397.611083984375	405.2850952148438	-913.6754760742188	1107.257934570312	446.3656616210938	-967.9893188476562	1087.68994140625	420.8402709960938	-770.899658203125	894.4064331054688	388.6137390136719	-809.3873291015625	870.0260009765625	458.2411499023438	-898.2260131835938	1052.018920898438	450.2832641601562	-750.2322998046875	720.5933227539062	390.0729064941406	-738.7987060546875	803.7039184570312	398.2091979980469	-788.9231567382812	796.3125610351562	451.6224060058594	-929.173583984375	1680.724365234375	240.5470733642578	-768.5533447265625	1724.823852539062	115.2611236572266	-796.0245971679688	1723.004638671875	256.9581909179688	-890.17578125	1681.66162109375	79.30229187011719	-855.8773193359375	930.9244384765625	-15.70658111572266	-878.2792358398438	941.358154296875	364.7878723144531	-789.2174682617188	970.5403442382812	307.7874145507812	-789.8045654296875	963.4976196289062	31.58515930175781	-868.9616088867188	494.3936462402344	45.75980758666992	-856.2142944335938	658.3265380859375	5.664865970611572	-950.6713256835938	33.34477615356445	63.64749908447266	-935.0340576171875	250.4560241699219	44.88387298583984	-741.2703857421875	38.91660308837891	120.968620300293	-812.3113403320312	40.84264373779297	156.5420989990234	-827.7429809570312	34.91997909545898	50.03781127929688	-1020.259643554688	36.5791015625	118.7666397094727	-876.3379516601562	496.8512878417969	321.1299438476562	-846.2445678710938	785.926513671875	363.1432495117188	-977.2627563476562	36.92695236206055	309.6972351074219	-885.0579223632812	354.9048461914062	309.6787719726562	-755.4224853515625	39.39734649658203	270.7760925292969	-819.9904174804688	40.62506866455078	228.9617462158203	-843.1007080078125	36.31005096435547	331.3323364257812	-1031.7353515625	33.05028533935547	252.8137359619141	
